<svg xmlns="http://www.w3.org/2000/svg" width="640" height="360" viewBox="0 0 640 360"><metadata>{&quot;schema&quot;:&quot;SNS_VISUAL_V841&quot;,&quot;id&quot;:&quot;futton_fukidemono_tashou&quot;,&quot;title&quot;:&quot;Futton • Fukidemono Tashou&quot;,&quot;kind&quot;:&quot;technique:catalog&quot;,&quot;family&quot;:&quot;water&quot;,&quot;seed&quot;:201731349,&quot;exclusive&quot;:true,&quot;externalImageReferences&quot;:0}</metadata><defs>
  <linearGradient id="bg-sc062d15" x1="0" y1="0" x2="1" y2="1"><stop stop-color="hsl(221 54% 7%)"/><stop offset=".55" stop-color="hsl(239 62% 12%)"/><stop offset="1" stop-color="#020407"/></linearGradient>
  <radialGradient id="glow-sc062d15"><stop stop-color="hsl(320 96% 68%)" stop-opacity=".92"/><stop offset=".45" stop-color="hsl(12 94% 60%)" stop-opacity=".30"/><stop offset="1" stop-color="hsl(221 54% 7%)" stop-opacity="0"/></radialGradient>
  <linearGradient id="metal-sc062d15" x1="0" y1="0" x2="1" y2="1"><stop stop-color="#f6ead1"/><stop offset=".35" stop-color="hsl(320 96% 68%)"/><stop offset=".7" stop-color="#4a525d"/><stop offset="1" stop-color="#0b1018"/></linearGradient>
  <pattern id="grid-sc062d15" width="55" height="55" patternUnits="userSpaceOnUse"><path d="M100 0H0V100" fill="none" stroke="hsl(320 96% 68%)" stroke-opacity=".07"/></pattern>
  <filter id="blur-sc062d15" x="-40%" y="-40%" width="180%" height="180%"><feGaussianBlur stdDeviation="10"/></filter>
  <clipPath id="clip-sc062d15"><rect width="640" height="360" rx="24"/></clipPath>
  </defs><g clip-path="url(#clip-sc062d15)"><rect width="640" height="360" fill="url(#bg-sc062d15)"/><rect width="640" height="360" fill="url(#grid-sc062d15)"/><circle cx="79" cy="318" r="1.9" fill="hsl(12 94% 60%)" opacity="0.16"/><circle cx="513" cy="96" r="1.0" fill="hsl(320 96% 68%)" opacity="0.32"/><circle cx="489" cy="220" r="2.8" fill="hsl(320 96% 68%)" opacity="0.25"/><circle cx="110" cy="303" r="1.1" fill="hsl(12 94% 60%)" opacity="0.18"/><circle cx="37" cy="79" r="2.6" fill="hsl(320 96% 68%)" opacity="0.57"/><circle cx="324" cy="59" r="3.0" fill="hsl(320 96% 68%)" opacity="0.36"/><circle cx="254" cy="310" r="2.7" fill="hsl(12 94% 60%)" opacity="0.60"/><circle cx="54" cy="308" r="2.4" fill="hsl(320 96% 68%)" opacity="0.60"/><circle cx="277" cy="304" r="1.4" fill="hsl(320 96% 68%)" opacity="0.39"/><circle cx="66" cy="302" r="2.5" fill="hsl(12 94% 60%)" opacity="0.71"/><circle cx="213" cy="241" r="1.2" fill="hsl(320 96% 68%)" opacity="0.68"/><circle cx="455" cy="88" r="2.8" fill="hsl(320 96% 68%)" opacity="0.66"/><circle cx="510" cy="115" r="2.6" fill="hsl(12 94% 60%)" opacity="0.74"/><circle cx="124" cy="100" r="3.4" fill="hsl(320 96% 68%)" opacity="0.55"/><circle cx="92" cy="88" r="2.0" fill="hsl(320 96% 68%)" opacity="0.33"/><circle cx="358" cy="323" r="2.5" fill="hsl(12 94% 60%)" opacity="0.55"/><circle cx="392" cy="135" r="1.3" fill="hsl(320 96% 68%)" opacity="0.36"/><circle cx="116" cy="305" r="2.9" fill="hsl(320 96% 68%)" opacity="0.71"/><g fill="none" stroke-linecap="round"><path d="M-30 110C80 0 168 218 286 96S510 204 680 68" stroke="hsl(12 94% 60%)" stroke-width="30" opacity=".25"/><path d="M-30 110C80 0 168 218 286 96S510 204 680 68" stroke="hsl(320 96% 68%)" stroke-width="6" opacity=".86"/><circle cx="90" cy="58" r="16" stroke="hsl(320 96% 68%)" stroke-width="3" opacity=".5"/><circle cx="228" cy="256" r="22" stroke="hsl(320 96% 68%)" stroke-width="3" opacity=".5"/><circle cx="366" cy="58" r="28" stroke="hsl(320 96% 68%)" stroke-width="3" opacity=".5"/><circle cx="504" cy="256" r="34" stroke="hsl(320 96% 68%)" stroke-width="3" opacity=".5"/></g><g transform="translate(286 205) scale(1.0654852659604512 1.0654852659604512)" fill="hsl(320 96% 68%)" opacity="0.52"><circle cy="-92" r="24"/><path d="M-30-68Q0-84 30-68L44 22 13 66H-15L-44 22Z"/><path d="M-19-48L-112-4-92 23 5-9ZM20-46L105-102 120-75 10-7ZM-16 55L-80 139-54 152 13 80ZM16 55L99 114 79 138-12 80Z"/></g><path d="M0 282Q179.20000000000002 227 339.20000000000005 309T640 274V360H0Z" fill="#02040a" opacity=".82"/><text x="28" y="320" fill="#fff5e7" font-family="Segoe UI,Arial,sans-serif" font-size="25" font-weight="700">Futton • Fukidemono Tashou</text><text x="30" y="343" fill="hsl(320 96% 68%)" font-family="Segoe UI,Arial,sans-serif" font-size="12" letter-spacing="2">ANBU • NIN</text><rect x="9" y="9" width="622" height="342" rx="19" fill="none" stroke="hsl(320 96% 68%)" stroke-opacity=".48" stroke-width="2"/></g></svg>