<svg xmlns="http://www.w3.org/2000/svg" width="640" height="360" viewBox="0 0 640 360"><metadata>{&quot;schema&quot;:&quot;SNS_VISUAL_V841&quot;,&quot;id&quot;:&quot;hyouton_hyourou_no_jutsu&quot;,&quot;title&quot;:&quot;Hyouton • Hyourou no Jutsu&quot;,&quot;kind&quot;:&quot;technique:catalog&quot;,&quot;family&quot;:&quot;water&quot;,&quot;seed&quot;:1262994350,&quot;exclusive&quot;:true,&quot;externalImageReferences&quot;:0}</metadata><defs>
  <linearGradient id="bg-s4b47c3ae" x1="0" y1="0" x2="1" y2="1"><stop stop-color="hsl(210 54% 7%)"/><stop offset=".55" stop-color="hsl(228 62% 12%)"/><stop offset="1" stop-color="#020407"/></linearGradient>
  <radialGradient id="glow-s4b47c3ae"><stop stop-color="hsl(278 96% 68%)" stop-opacity=".92"/><stop offset=".45" stop-color="hsl(330 94% 60%)" stop-opacity=".30"/><stop offset="1" stop-color="hsl(210 54% 7%)" stop-opacity="0"/></radialGradient>
  <linearGradient id="metal-s4b47c3ae" x1="0" y1="0" x2="1" y2="1"><stop stop-color="#f6ead1"/><stop offset=".35" stop-color="hsl(278 96% 68%)"/><stop offset=".7" stop-color="#4a525d"/><stop offset="1" stop-color="#0b1018"/></linearGradient>
  <pattern id="grid-s4b47c3ae" width="35" height="35" patternUnits="userSpaceOnUse"><path d="M100 0H0V100" fill="none" stroke="hsl(278 96% 68%)" stroke-opacity=".07"/></pattern>
  <filter id="blur-s4b47c3ae" x="-40%" y="-40%" width="180%" height="180%"><feGaussianBlur stdDeviation="11"/></filter>
  <clipPath id="clip-s4b47c3ae"><rect width="640" height="360" rx="24"/></clipPath>
  </defs><g clip-path="url(#clip-s4b47c3ae)"><rect width="640" height="360" fill="url(#bg-s4b47c3ae)"/><rect width="640" height="360" fill="url(#grid-s4b47c3ae)"/><circle cx="615" cy="16" r="1.3" fill="hsl(330 94% 60%)" opacity="0.49"/><circle cx="220" cy="293" r="3.4" fill="hsl(278 96% 68%)" opacity="0.53"/><circle cx="47" cy="47" r="1.0" fill="hsl(278 96% 68%)" opacity="0.57"/><circle cx="337" cy="202" r="1.6" fill="hsl(330 94% 60%)" opacity="0.35"/><circle cx="385" cy="28" r="1.8" fill="hsl(278 96% 68%)" opacity="0.67"/><circle cx="300" cy="172" r="3.4" fill="hsl(278 96% 68%)" opacity="0.77"/><circle cx="218" cy="1" r="2.3" fill="hsl(330 94% 60%)" opacity="0.59"/><circle cx="273" cy="34" r="2.7" fill="hsl(278 96% 68%)" opacity="0.35"/><circle cx="173" cy="114" r="3.2" fill="hsl(278 96% 68%)" opacity="0.43"/><circle cx="220" cy="98" r="1.8" fill="hsl(330 94% 60%)" opacity="0.36"/><circle cx="389" cy="353" r="2.7" fill="hsl(278 96% 68%)" opacity="0.54"/><circle cx="182" cy="71" r="2.9" fill="hsl(278 96% 68%)" opacity="0.21"/><circle cx="536" cy="234" r="0.7" fill="hsl(330 94% 60%)" opacity="0.24"/><circle cx="501" cy="346" r="1.1" fill="hsl(278 96% 68%)" opacity="0.38"/><circle cx="399" cy="276" r="1.9" fill="hsl(278 96% 68%)" opacity="0.34"/><circle cx="347" cy="24" r="1.1" fill="hsl(330 94% 60%)" opacity="0.47"/><circle cx="83" cy="97" r="0.7" fill="hsl(278 96% 68%)" opacity="0.40"/><circle cx="66" cy="354" r="0.7" fill="hsl(278 96% 68%)" opacity="0.64"/><g fill="none" stroke-linecap="round"><path d="M-30 160C80 50 168 268 286 146S510 254 680 118" stroke="hsl(330 94% 60%)" stroke-width="30" opacity=".25"/><path d="M-30 160C80 50 168 268 286 146S510 254 680 118" stroke="hsl(278 96% 68%)" stroke-width="6" opacity=".86"/><circle cx="90" cy="58" r="16" stroke="hsl(278 96% 68%)" stroke-width="3" opacity=".5"/><circle cx="228" cy="256" r="22" stroke="hsl(278 96% 68%)" stroke-width="3" opacity=".5"/><circle cx="366" cy="58" r="28" stroke="hsl(278 96% 68%)" stroke-width="3" opacity=".5"/><circle cx="504" cy="256" r="34" stroke="hsl(278 96% 68%)" stroke-width="3" opacity=".5"/></g><g transform="translate(454 234) scale(0.7593048841855489 0.7593048841855489)" fill="hsl(278 96% 68%)" opacity="0.52"><circle cy="-92" r="24"/><path d="M-30-68Q0-84 30-68L44 22 13 66H-15L-44 22Z"/><path d="M-19-48L-112-4-92 23 5-9ZM20-46L105-102 120-75 10-7ZM-16 55L-80 139-54 152 13 80ZM16 55L99 114 79 138-12 80Z"/></g><path d="M0 282Q179.20000000000002 234 339.20000000000005 302T640 274V360H0Z" fill="#02040a" opacity=".82"/><text x="28" y="320" fill="#fff5e7" font-family="Segoe UI,Arial,sans-serif" font-size="25" font-weight="700">Hyouton • Hyourou no Jutsu</text><text x="30" y="343" fill="hsl(278 96% 68%)" font-family="Segoe UI,Arial,sans-serif" font-size="12" letter-spacing="2">ANBU • NIN</text><rect x="9" y="9" width="622" height="342" rx="19" fill="none" stroke="hsl(278 96% 68%)" stroke-opacity=".48" stroke-width="2"/></g></svg>