<svg xmlns="http://www.w3.org/2000/svg" width="640" height="360" viewBox="0 0 640 360"><metadata>{&quot;schema&quot;:&quot;SNS_VISUAL_V841&quot;,&quot;id&quot;:&quot;shinkuuken&quot;,&quot;title&quot;:&quot;Shinkuuken&quot;,&quot;kind&quot;:&quot;technique:catalog&quot;,&quot;family&quot;:&quot;shadow&quot;,&quot;seed&quot;:3227120757,&quot;exclusive&quot;:true,&quot;externalImageReferences&quot;:0}</metadata><defs>
  <linearGradient id="bg-sc059f475" x1="0" y1="0" x2="1" y2="1"><stop stop-color="hsl(279 54% 7%)"/><stop offset=".55" stop-color="hsl(297 62% 12%)"/><stop offset="1" stop-color="#020407"/></linearGradient>
  <radialGradient id="glow-sc059f475"><stop stop-color="hsl(332 96% 68%)" stop-opacity=".92"/><stop offset=".45" stop-color="hsl(24 94% 60%)" stop-opacity=".30"/><stop offset="1" stop-color="hsl(279 54% 7%)" stop-opacity="0"/></radialGradient>
  <linearGradient id="metal-sc059f475" x1="0" y1="0" x2="1" y2="1"><stop stop-color="#f6ead1"/><stop offset=".35" stop-color="hsl(332 96% 68%)"/><stop offset=".7" stop-color="#4a525d"/><stop offset="1" stop-color="#0b1018"/></linearGradient>
  <pattern id="grid-sc059f475" width="46" height="46" patternUnits="userSpaceOnUse"><path d="M100 0H0V100" fill="none" stroke="hsl(332 96% 68%)" stroke-opacity=".07"/></pattern>
  <filter id="blur-sc059f475" x="-40%" y="-40%" width="180%" height="180%"><feGaussianBlur stdDeviation="10"/></filter>
  <clipPath id="clip-sc059f475"><rect width="640" height="360" rx="24"/></clipPath>
  </defs><g clip-path="url(#clip-sc059f475)"><rect width="640" height="360" fill="url(#bg-sc059f475)"/><rect width="640" height="360" fill="url(#grid-sc059f475)"/><circle cx="487" cy="236" r="2.6" fill="hsl(24 94% 60%)" opacity="0.46"/><circle cx="455" cy="27" r="3.0" fill="hsl(332 96% 68%)" opacity="0.65"/><circle cx="289" cy="256" r="1.1" fill="hsl(332 96% 68%)" opacity="0.26"/><circle cx="506" cy="37" r="1.4" fill="hsl(24 94% 60%)" opacity="0.70"/><circle cx="176" cy="287" r="1.1" fill="hsl(332 96% 68%)" opacity="0.63"/><circle cx="498" cy="149" r="2.5" fill="hsl(332 96% 68%)" opacity="0.36"/><circle cx="96" cy="205" r="2.6" fill="hsl(24 94% 60%)" opacity="0.55"/><circle cx="152" cy="108" r="1.9" fill="hsl(332 96% 68%)" opacity="0.73"/><circle cx="7" cy="243" r="3.1" fill="hsl(332 96% 68%)" opacity="0.36"/><circle cx="17" cy="168" r="2.1" fill="hsl(24 94% 60%)" opacity="0.73"/><circle cx="383" cy="147" r="1.9" fill="hsl(332 96% 68%)" opacity="0.19"/><circle cx="492" cy="46" r="0.9" fill="hsl(332 96% 68%)" opacity="0.66"/><circle cx="68" cy="323" r="1.7" fill="hsl(24 94% 60%)" opacity="0.40"/><circle cx="178" cy="177" r="1.6" fill="hsl(332 96% 68%)" opacity="0.35"/><circle cx="131" cy="272" r="2.0" fill="hsl(332 96% 68%)" opacity="0.72"/><circle cx="515" cy="140" r="1.7" fill="hsl(24 94% 60%)" opacity="0.54"/><circle cx="182" cy="354" r="2.0" fill="hsl(332 96% 68%)" opacity="0.53"/><circle cx="147" cy="118" r="1.8" fill="hsl(332 96% 68%)" opacity="0.36"/><g transform="translate(354 200) rotate(66)" fill="none" stroke="hsl(332 96% 68%)"><ellipse rx="49.6" ry="20.48" transform="rotate(0)" stroke-width="8" opacity="0.9"/><ellipse rx="89.9" ry="37.12" transform="rotate(31)" stroke-width="8" opacity="0.78"/><ellipse rx="136.4" ry="56.32" transform="rotate(62)" stroke-width="8" opacity="0.66"/><ellipse rx="189.1" ry="78.08" transform="rotate(93)" stroke-width="8" opacity="0.54"/><ellipse rx="244.9" ry="101.12" transform="rotate(124)" stroke-width="3" opacity="0.42000000000000004"/></g><g transform="translate(255 247) scale(1.1594138005678543 1.1594138005678543)" fill="hsl(332 96% 68%)" opacity="0.52"><circle cy="-92" r="24"/><path d="M-30-68Q0-84 30-68L44 22 13 66H-15L-44 22Z"/><path d="M-19-48L-112-4-92 23 5-9ZM20-46L105-102 120-75 10-7ZM-16 55L-80 139-54 152 13 80ZM16 55L99 114 79 138-12 80Z"/></g><path d="M0 282Q179.20000000000002 227 339.20000000000005 309T640 274V360H0Z" fill="#02040a" opacity=".82"/><text x="28" y="320" fill="#fff5e7" font-family="Segoe UI,Arial,sans-serif" font-size="25" font-weight="700">Shinkuuken</text><text x="30" y="343" fill="hsl(332 96% 68%)" font-family="Segoe UI,Arial,sans-serif" font-size="12" letter-spacing="2">JOUNIN • TAI</text><rect x="9" y="9" width="622" height="342" rx="19" fill="none" stroke="hsl(332 96% 68%)" stroke-opacity=".48" stroke-width="2"/></g></svg>