<svg xmlns="http://www.w3.org/2000/svg" width="640" height="360" viewBox="0 0 640 360"><metadata>{&quot;schema&quot;:&quot;SNS_VISUAL_V841&quot;,&quot;id&quot;:&quot;locations:país-do-ferro&quot;,&quot;title&quot;:&quot;País do Ferro&quot;,&quot;kind&quot;:&quot;location&quot;,&quot;family&quot;:&quot;mission&quot;,&quot;seed&quot;:2192062263,&quot;exclusive&quot;:true,&quot;externalImageReferences&quot;:0}</metadata><defs>
  <linearGradient id="bg-s82a83737" x1="0" y1="0" x2="1" y2="1"><stop stop-color="hsl(59 54% 7%)"/><stop offset=".55" stop-color="hsl(77 62% 12%)"/><stop offset="1" stop-color="#020407"/></linearGradient>
  <radialGradient id="glow-s82a83737"><stop stop-color="hsl(100 96% 68%)" stop-opacity=".92"/><stop offset=".45" stop-color="hsl(152 94% 60%)" stop-opacity=".30"/><stop offset="1" stop-color="hsl(59 54% 7%)" stop-opacity="0"/></radialGradient>
  <linearGradient id="metal-s82a83737" x1="0" y1="0" x2="1" y2="1"><stop stop-color="#f6ead1"/><stop offset=".35" stop-color="hsl(100 96% 68%)"/><stop offset=".7" stop-color="#4a525d"/><stop offset="1" stop-color="#0b1018"/></linearGradient>
  <pattern id="grid-s82a83737" width="56" height="56" patternUnits="userSpaceOnUse"><path d="M100 0H0V100" fill="none" stroke="hsl(100 96% 68%)" stroke-opacity=".07"/></pattern>
  <filter id="blur-s82a83737" x="-40%" y="-40%" width="180%" height="180%"><feGaussianBlur stdDeviation="12"/></filter>
  <clipPath id="clip-s82a83737"><rect width="640" height="360" rx="24"/></clipPath>
  </defs><g clip-path="url(#clip-s82a83737)"><rect width="640" height="360" fill="url(#bg-s82a83737)"/><rect width="640" height="360" fill="url(#grid-s82a83737)"/><circle cx="368" cy="62" r="2.4" fill="hsl(152 94% 60%)" opacity="0.17"/><circle cx="259" cy="301" r="3.0" fill="hsl(100 96% 68%)" opacity="0.48"/><circle cx="284" cy="203" r="1.4" fill="hsl(100 96% 68%)" opacity="0.71"/><circle cx="213" cy="331" r="3.2" fill="hsl(152 94% 60%)" opacity="0.18"/><circle cx="516" cy="138" r="0.7" fill="hsl(100 96% 68%)" opacity="0.58"/><circle cx="178" cy="21" r="2.8" fill="hsl(100 96% 68%)" opacity="0.19"/><circle cx="306" cy="74" r="3.4" fill="hsl(152 94% 60%)" opacity="0.38"/><circle cx="605" cy="255" r="2.5" fill="hsl(100 96% 68%)" opacity="0.57"/><circle cx="556" cy="278" r="1.9" fill="hsl(100 96% 68%)" opacity="0.25"/><circle cx="186" cy="201" r="3.3" fill="hsl(152 94% 60%)" opacity="0.26"/><circle cx="344" cy="93" r="2.6" fill="hsl(100 96% 68%)" opacity="0.40"/><circle cx="255" cy="50" r="2.0" fill="hsl(100 96% 68%)" opacity="0.24"/><circle cx="398" cy="60" r="2.2" fill="hsl(152 94% 60%)" opacity="0.64"/><circle cx="378" cy="156" r="1.5" fill="hsl(100 96% 68%)" opacity="0.39"/><circle cx="33" cy="51" r="2.0" fill="hsl(100 96% 68%)" opacity="0.48"/><circle cx="237" cy="267" r="3.4" fill="hsl(152 94% 60%)" opacity="0.36"/><circle cx="538" cy="179" r="1.7" fill="hsl(100 96% 68%)" opacity="0.49"/><circle cx="234" cy="137" r="2.4" fill="hsl(100 96% 68%)" opacity="0.54"/><path d="M0 292Q95 176 184 255t151-48q97-94 181 27 68-42 124 14v112H0Z" fill="hsl(59 72% 34%)"/><circle cx="403" cy="133" r="48" fill="hsl(100 96% 68%)" opacity=".55"/><g transform="translate(174 244) rotate(180)"><circle r="132" fill="url(#glow-s82a83737)"/><path d="M0-132L29-36 126-55 50 13 118 80 23 51 0 144-27 51-122 78-51 11-124-54-30-36Z" fill="hsl(100 96% 68%)" opacity=".62"/></g><g transform="translate(221 216) scale(-0.8744207555707544 0.8744207555707544)" fill="hsl(100 96% 68%)" opacity="0.52"><circle cy="-92" r="24"/><path d="M-30-68Q0-84 30-68L44 22 13 66H-15L-44 22Z"/><path d="M-19-48L-112-4-92 23 5-9ZM20-46L105-102 120-75 10-7ZM-16 55L-80 139-54 152 13 80ZM16 55L99 114 79 138-12 80Z"/></g><path d="M0 282Q179.20000000000002 225 339.20000000000005 303T640 274V360H0Z" fill="#02040a" opacity=".82"/><text x="28" y="320" fill="#fff5e7" font-family="Segoe UI,Arial,sans-serif" font-size="25" font-weight="700">País do Ferro</text><text x="30" y="343" fill="hsl(100 96% 68%)" font-family="Segoe UI,Arial,sans-serif" font-size="12" letter-spacing="2">NEUTRAL</text><rect x="9" y="9" width="622" height="342" rx="19" fill="none" stroke="hsl(100 96% 68%)" stroke-opacity=".48" stroke-width="2"/></g></svg>