<svg xmlns="http://www.w3.org/2000/svg" width="640" height="360" viewBox="0 0 640 360"><metadata>{&quot;schema&quot;:&quot;SNS_VISUAL_V841&quot;,&quot;id&quot;:&quot;passo_1&quot;,&quot;title&quot;:&quot;Passo 1&quot;,&quot;kind&quot;:&quot;creationSteps&quot;,&quot;family&quot;:&quot;shinobi&quot;,&quot;seed&quot;:60344137,&quot;exclusive&quot;:true,&quot;externalImageReferences&quot;:0}</metadata><defs>
  <linearGradient id="bg-s398c749" x1="0" y1="0" x2="1" y2="1"><stop stop-color="hsl(37 54% 7%)"/><stop offset=".55" stop-color="hsl(55 62% 12%)"/><stop offset="1" stop-color="#020407"/></linearGradient>
  <radialGradient id="glow-s398c749"><stop stop-color="hsl(124 96% 68%)" stop-opacity=".92"/><stop offset=".45" stop-color="hsl(176 94% 60%)" stop-opacity=".30"/><stop offset="1" stop-color="hsl(37 54% 7%)" stop-opacity="0"/></radialGradient>
  <linearGradient id="metal-s398c749" x1="0" y1="0" x2="1" y2="1"><stop stop-color="#f6ead1"/><stop offset=".35" stop-color="hsl(124 96% 68%)"/><stop offset=".7" stop-color="#4a525d"/><stop offset="1" stop-color="#0b1018"/></linearGradient>
  <pattern id="grid-s398c749" width="30" height="30" patternUnits="userSpaceOnUse"><path d="M100 0H0V100" fill="none" stroke="hsl(124 96% 68%)" stroke-opacity=".07"/></pattern>
  <filter id="blur-s398c749" x="-40%" y="-40%" width="180%" height="180%"><feGaussianBlur stdDeviation="6"/></filter>
  <clipPath id="clip-s398c749"><rect width="640" height="360" rx="24"/></clipPath>
  </defs><g clip-path="url(#clip-s398c749)"><rect width="640" height="360" fill="url(#bg-s398c749)"/><rect width="640" height="360" fill="url(#grid-s398c749)"/><circle cx="274" cy="35" r="0.8" fill="hsl(176 94% 60%)" opacity="0.56"/><circle cx="31" cy="2" r="1.7" fill="hsl(124 96% 68%)" opacity="0.19"/><circle cx="396" cy="48" r="3.4" fill="hsl(124 96% 68%)" opacity="0.58"/><circle cx="441" cy="236" r="2.6" fill="hsl(176 94% 60%)" opacity="0.31"/><circle cx="133" cy="232" r="1.8" fill="hsl(124 96% 68%)" opacity="0.70"/><circle cx="419" cy="43" r="3.4" fill="hsl(124 96% 68%)" opacity="0.20"/><circle cx="363" cy="183" r="2.0" fill="hsl(176 94% 60%)" opacity="0.67"/><circle cx="390" cy="174" r="3.1" fill="hsl(124 96% 68%)" opacity="0.52"/><circle cx="156" cy="310" r="0.9" fill="hsl(124 96% 68%)" opacity="0.52"/><circle cx="560" cy="252" r="3.3" fill="hsl(176 94% 60%)" opacity="0.73"/><circle cx="427" cy="94" r="0.9" fill="hsl(124 96% 68%)" opacity="0.29"/><circle cx="48" cy="101" r="0.8" fill="hsl(124 96% 68%)" opacity="0.58"/><circle cx="93" cy="139" r="3.0" fill="hsl(176 94% 60%)" opacity="0.63"/><circle cx="326" cy="316" r="2.9" fill="hsl(124 96% 68%)" opacity="0.19"/><circle cx="524" cy="129" r="1.4" fill="hsl(124 96% 68%)" opacity="0.40"/><circle cx="496" cy="236" r="3.2" fill="hsl(176 94% 60%)" opacity="0.34"/><circle cx="384" cy="298" r="1.9" fill="hsl(124 96% 68%)" opacity="0.44"/><circle cx="311" cy="200" r="1.6" fill="hsl(124 96% 68%)" opacity="0.20"/><circle cx="320" cy="150" r="142" fill="url(#glow-s398c749)"/><g transform="translate(320 150) scale(.78)" fill="hsl(37 72% 34%)" stroke="hsl(124 96% 68%)" stroke-width="9" stroke-linejoin="round"><path d="M-118-90H118V90H-118ZM-72-42H72M-72 0H72M-72 42H18"/></g><circle cx="274" cy="35" r="0.8" fill="hsl(176 94% 60%)" opacity="0.56"/><circle cx="31" cy="2" r="1.7" fill="hsl(124 96% 68%)" opacity="0.19"/><circle cx="396" cy="48" r="3.4" fill="hsl(124 96% 68%)" opacity="0.58"/><circle cx="441" cy="236" r="2.6" fill="hsl(176 94% 60%)" opacity="0.31"/><circle cx="133" cy="232" r="1.8" fill="hsl(124 96% 68%)" opacity="0.70"/><circle cx="419" cy="43" r="3.4" fill="hsl(124 96% 68%)" opacity="0.20"/><circle cx="363" cy="183" r="2.0" fill="hsl(176 94% 60%)" opacity="0.67"/><circle cx="390" cy="174" r="3.1" fill="hsl(124 96% 68%)" opacity="0.52"/><circle cx="156" cy="310" r="0.9" fill="hsl(124 96% 68%)" opacity="0.52"/><circle cx="560" cy="252" r="3.3" fill="hsl(176 94% 60%)" opacity="0.73"/><circle cx="427" cy="94" r="0.9" fill="hsl(124 96% 68%)" opacity="0.29"/><circle cx="48" cy="101" r="0.8" fill="hsl(124 96% 68%)" opacity="0.58"/><path d="M0 282Q179.20000000000002 239 339.20000000000005 289T640 274V360H0Z" fill="#02040a" opacity=".82"/><text x="28" y="320" fill="#fff5e7" font-family="Segoe UI,Arial,sans-serif" font-size="25" font-weight="700">Passo 1</text><text x="30" y="343" fill="hsl(124 96% 68%)" font-family="Segoe UI,Arial,sans-serif" font-size="12" letter-spacing="2">CREATIONSTEPS</text><rect x="9" y="9" width="622" height="342" rx="19" fill="none" stroke="hsl(124 96% 68%)" stroke-opacity=".48" stroke-width="2"/></g></svg>