<svg xmlns="http://www.w3.org/2000/svg" width="640" height="360" viewBox="0 0 640 360"><metadata>{&quot;schema&quot;:&quot;SNS_VISUAL_V841&quot;,&quot;id&quot;:&quot;cacador&quot;,&quot;title&quot;:&quot;Caçador&quot;,&quot;kind&quot;:&quot;professions&quot;,&quot;family&quot;:&quot;shinobi&quot;,&quot;seed&quot;:3620957665,&quot;exclusive&quot;:true,&quot;externalImageReferences&quot;:0}</metadata><defs>
  <linearGradient id="bg-sd7d36de1" x1="0" y1="0" x2="1" y2="1"><stop stop-color="hsl(25 54% 7%)"/><stop offset=".55" stop-color="hsl(43 62% 12%)"/><stop offset="1" stop-color="#020407"/></linearGradient>
  <radialGradient id="glow-sd7d36de1"><stop stop-color="hsl(108 96% 68%)" stop-opacity=".92"/><stop offset=".45" stop-color="hsl(160 94% 60%)" stop-opacity=".30"/><stop offset="1" stop-color="hsl(25 54% 7%)" stop-opacity="0"/></radialGradient>
  <linearGradient id="metal-sd7d36de1" x1="0" y1="0" x2="1" y2="1"><stop stop-color="#f6ead1"/><stop offset=".35" stop-color="hsl(108 96% 68%)"/><stop offset=".7" stop-color="#4a525d"/><stop offset="1" stop-color="#0b1018"/></linearGradient>
  <pattern id="grid-sd7d36de1" width="58" height="58" patternUnits="userSpaceOnUse"><path d="M100 0H0V100" fill="none" stroke="hsl(108 96% 68%)" stroke-opacity=".07"/></pattern>
  <filter id="blur-sd7d36de1" x="-40%" y="-40%" width="180%" height="180%"><feGaussianBlur stdDeviation="6"/></filter>
  <clipPath id="clip-sd7d36de1"><rect width="640" height="360" rx="24"/></clipPath>
  </defs><g clip-path="url(#clip-sd7d36de1)"><rect width="640" height="360" fill="url(#bg-sd7d36de1)"/><rect width="640" height="360" fill="url(#grid-sd7d36de1)"/><circle cx="479" cy="263" r="2.7" fill="hsl(160 94% 60%)" opacity="0.16"/><circle cx="588" cy="105" r="1.4" fill="hsl(108 96% 68%)" opacity="0.67"/><circle cx="250" cy="194" r="2.7" fill="hsl(108 96% 68%)" opacity="0.51"/><circle cx="418" cy="9" r="3.4" fill="hsl(160 94% 60%)" opacity="0.46"/><circle cx="176" cy="68" r="2.3" fill="hsl(108 96% 68%)" opacity="0.35"/><circle cx="300" cy="80" r="1.5" fill="hsl(108 96% 68%)" opacity="0.75"/><circle cx="577" cy="269" r="0.9" fill="hsl(160 94% 60%)" opacity="0.30"/><circle cx="9" cy="140" r="2.7" fill="hsl(108 96% 68%)" opacity="0.54"/><circle cx="393" cy="284" r="2.5" fill="hsl(108 96% 68%)" opacity="0.60"/><circle cx="548" cy="105" r="1.4" fill="hsl(160 94% 60%)" opacity="0.39"/><circle cx="485" cy="178" r="2.9" fill="hsl(108 96% 68%)" opacity="0.58"/><circle cx="210" cy="153" r="2.5" fill="hsl(108 96% 68%)" opacity="0.59"/><circle cx="258" cy="48" r="1.6" fill="hsl(160 94% 60%)" opacity="0.23"/><circle cx="103" cy="296" r="2.0" fill="hsl(108 96% 68%)" opacity="0.17"/><circle cx="404" cy="178" r="2.2" fill="hsl(108 96% 68%)" opacity="0.24"/><circle cx="398" cy="325" r="0.9" fill="hsl(160 94% 60%)" opacity="0.27"/><circle cx="276" cy="16" r="2.8" fill="hsl(108 96% 68%)" opacity="0.48"/><circle cx="468" cy="323" r="2.8" fill="hsl(108 96% 68%)" opacity="0.69"/><circle cx="320" cy="150" r="142" fill="url(#glow-sd7d36de1)"/><g transform="translate(320 150) scale(.78)" fill="hsl(25 72% 34%)" stroke="hsl(108 96% 68%)" stroke-width="9" stroke-linejoin="round"><path d="M-110-70H110V105H-110ZM-52-108H52V-70H-52ZM-110-5Q0 54 110-5"/></g><circle cx="479" cy="263" r="2.7" fill="hsl(160 94% 60%)" opacity="0.16"/><circle cx="588" cy="105" r="1.4" fill="hsl(108 96% 68%)" opacity="0.67"/><circle cx="250" cy="194" r="2.7" fill="hsl(108 96% 68%)" opacity="0.51"/><circle cx="418" cy="9" r="3.4" fill="hsl(160 94% 60%)" opacity="0.46"/><circle cx="176" cy="68" r="2.3" fill="hsl(108 96% 68%)" opacity="0.35"/><circle cx="300" cy="80" r="1.5" fill="hsl(108 96% 68%)" opacity="0.75"/><circle cx="577" cy="269" r="0.9" fill="hsl(160 94% 60%)" opacity="0.30"/><circle cx="9" cy="140" r="2.7" fill="hsl(108 96% 68%)" opacity="0.54"/><circle cx="393" cy="284" r="2.5" fill="hsl(108 96% 68%)" opacity="0.60"/><circle cx="548" cy="105" r="1.4" fill="hsl(160 94% 60%)" opacity="0.39"/><circle cx="485" cy="178" r="2.9" fill="hsl(108 96% 68%)" opacity="0.58"/><circle cx="210" cy="153" r="2.5" fill="hsl(108 96% 68%)" opacity="0.59"/><path d="M0 282Q179.20000000000002 247 339.20000000000005 289T640 274V360H0Z" fill="#02040a" opacity=".82"/><text x="28" y="320" fill="#fff5e7" font-family="Segoe UI,Arial,sans-serif" font-size="25" font-weight="700">Caçador</text><text x="30" y="343" fill="hsl(108 96% 68%)" font-family="Segoe UI,Arial,sans-serif" font-size="12" letter-spacing="2">SOBREVIVE FORA DAS VILAS, CAÇA E PREPARA EMBOSCADAS.</text><rect x="9" y="9" width="622" height="342" rx="19" fill="none" stroke="hsl(108 96% 68%)" stroke-opacity=".48" stroke-width="2"/></g></svg>