<svg xmlns="http://www.w3.org/2000/svg" width="640" height="360" viewBox="0 0 640 360"><metadata>{&quot;schema&quot;:&quot;SNS_VISUAL_V841&quot;,&quot;id&quot;:&quot;mission392&quot;,&quot;title&quot;:&quot;Defendendo sua Vila!&quot;,&quot;kind&quot;:&quot;mission&quot;,&quot;family&quot;:&quot;mission&quot;,&quot;seed&quot;:2608625602,&quot;exclusive&quot;:true,&quot;externalImageReferences&quot;:0}</metadata><defs>
  <linearGradient id="bg-s9b7c77c2" x1="0" y1="0" x2="1" y2="1"><stop stop-color="hsl(42 54% 7%)"/><stop offset=".55" stop-color="hsl(60 62% 12%)"/><stop offset="1" stop-color="#020407"/></linearGradient>
  <radialGradient id="glow-s9b7c77c2"><stop stop-color="hsl(123 96% 68%)" stop-opacity=".92"/><stop offset=".45" stop-color="hsl(175 94% 60%)" stop-opacity=".30"/><stop offset="1" stop-color="hsl(42 54% 7%)" stop-opacity="0"/></radialGradient>
  <linearGradient id="metal-s9b7c77c2" x1="0" y1="0" x2="1" y2="1"><stop stop-color="#f6ead1"/><stop offset=".35" stop-color="hsl(123 96% 68%)"/><stop offset=".7" stop-color="#4a525d"/><stop offset="1" stop-color="#0b1018"/></linearGradient>
  <pattern id="grid-s9b7c77c2" width="58" height="58" patternUnits="userSpaceOnUse"><path d="M100 0H0V100" fill="none" stroke="hsl(123 96% 68%)" stroke-opacity=".07"/></pattern>
  <filter id="blur-s9b7c77c2" x="-40%" y="-40%" width="180%" height="180%"><feGaussianBlur stdDeviation="7"/></filter>
  <clipPath id="clip-s9b7c77c2"><rect width="640" height="360" rx="24"/></clipPath>
  </defs><g clip-path="url(#clip-s9b7c77c2)"><rect width="640" height="360" fill="url(#bg-s9b7c77c2)"/><rect width="640" height="360" fill="url(#grid-s9b7c77c2)"/><circle cx="613" cy="350" r="1.7" fill="hsl(175 94% 60%)" opacity="0.68"/><circle cx="61" cy="272" r="2.5" fill="hsl(123 96% 68%)" opacity="0.74"/><circle cx="345" cy="132" r="2.4" fill="hsl(123 96% 68%)" opacity="0.56"/><circle cx="303" cy="35" r="2.7" fill="hsl(175 94% 60%)" opacity="0.75"/><circle cx="598" cy="222" r="2.1" fill="hsl(123 96% 68%)" opacity="0.23"/><circle cx="117" cy="278" r="3.2" fill="hsl(123 96% 68%)" opacity="0.52"/><circle cx="178" cy="15" r="3.4" fill="hsl(175 94% 60%)" opacity="0.55"/><circle cx="456" cy="248" r="2.8" fill="hsl(123 96% 68%)" opacity="0.35"/><circle cx="177" cy="93" r="1.2" fill="hsl(123 96% 68%)" opacity="0.73"/><circle cx="51" cy="233" r="2.0" fill="hsl(175 94% 60%)" opacity="0.73"/><circle cx="385" cy="39" r="2.4" fill="hsl(123 96% 68%)" opacity="0.21"/><circle cx="539" cy="104" r="3.1" fill="hsl(123 96% 68%)" opacity="0.17"/><circle cx="207" cy="274" r="1.5" fill="hsl(175 94% 60%)" opacity="0.76"/><circle cx="109" cy="113" r="1.6" fill="hsl(123 96% 68%)" opacity="0.19"/><circle cx="390" cy="308" r="3.0" fill="hsl(123 96% 68%)" opacity="0.56"/><circle cx="364" cy="292" r="2.6" fill="hsl(175 94% 60%)" opacity="0.30"/><circle cx="433" cy="275" r="2.8" fill="hsl(123 96% 68%)" opacity="0.64"/><circle cx="238" cy="332" r="2.5" fill="hsl(123 96% 68%)" opacity="0.16"/><path d="M0 302V188l78-56 64 42 92-98 80 116 72-70 65 64 88-99 101 107v108Z" fill="hsl(42 72% 34%)"/><path d="M0 302H640M82 132v170M234 76v226M386 122v180M539 87v215" stroke="hsl(123 96% 68%)" stroke-width="5" opacity=".55"/><rect x="24" y="210" width="22" height="18" fill="hsl(175 94% 60%)" opacity=".7"/><rect x="75" y="229" width="22" height="18" fill="hsl(175 94% 60%)" opacity=".7"/><rect x="126" y="248" width="22" height="18" fill="hsl(175 94% 60%)" opacity=".7"/><rect x="177" y="210" width="22" height="18" fill="hsl(175 94% 60%)" opacity=".7"/><rect x="228" y="229" width="22" height="18" fill="hsl(175 94% 60%)" opacity=".7"/><rect x="279" y="248" width="22" height="18" fill="hsl(175 94% 60%)" opacity=".7"/><rect x="330" y="210" width="22" height="18" fill="hsl(175 94% 60%)" opacity=".7"/><rect x="381" y="229" width="22" height="18" fill="hsl(175 94% 60%)" opacity=".7"/><rect x="432" y="248" width="22" height="18" fill="hsl(175 94% 60%)" opacity=".7"/><rect x="483" y="210" width="22" height="18" fill="hsl(175 94% 60%)" opacity=".7"/><rect x="534" y="229" width="22" height="18" fill="hsl(175 94% 60%)" opacity=".7"/><rect x="585" y="248" width="22" height="18" fill="hsl(175 94% 60%)" opacity=".7"/><path d="M501 56l38 65 75 13-52 55 10 76-71-33-70 33 10-76-53-55 75-13Z" fill="hsl(175 94% 60%)" opacity=".55"/><g transform="translate(460 227) rotate(215)"><circle r="132" fill="url(#glow-s9b7c77c2)"/><path d="M0-132L29-36 126-55 50 13 118 80 23 51 0 144-27 51-122 78-51 11-124-54-30-36Z" fill="hsl(123 96% 68%)" opacity=".62"/></g><g transform="translate(292 191) scale(-1.0013740250305272 1.0013740250305272)" fill="hsl(123 96% 68%)" opacity="0.52"><circle cy="-92" r="24"/><path d="M-30-68Q0-84 30-68L44 22 13 66H-15L-44 22Z"/><path d="M-19-48L-112-4-92 23 5-9ZM20-46L105-102 120-75 10-7ZM-16 55L-80 139-54 152 13 80ZM16 55L99 114 79 138-12 80Z"/></g><path d="M0 282Q179.20000000000002 246 339.20000000000005 298T640 274V360H0Z" fill="#02040a" opacity=".82"/><text x="28" y="320" fill="#fff5e7" font-family="Segoe UI,Arial,sans-serif" font-size="25" font-weight="700">Defendendo sua Vila!</text><text x="30" y="343" fill="hsl(123 96% 68%)" font-family="Segoe UI,Arial,sans-serif" font-size="12" letter-spacing="2">B</text><rect x="9" y="9" width="622" height="342" rx="19" fill="none" stroke="hsl(123 96% 68%)" stroke-opacity=".48" stroke-width="2"/></g></svg>