<svg xmlns="http://www.w3.org/2000/svg" width="640" height="360" viewBox="0 0 640 360"><metadata>{&quot;schema&quot;:&quot;SNS_VISUAL_V841&quot;,&quot;id&quot;:&quot;mission84&quot;,&quot;title&quot;:&quot;Confusão com o Carteiro&quot;,&quot;kind&quot;:&quot;mission&quot;,&quot;family&quot;:&quot;mission&quot;,&quot;seed&quot;:1638614291,&quot;exclusive&quot;:true,&quot;externalImageReferences&quot;:0}</metadata><defs>
  <linearGradient id="bg-s61ab4513" x1="0" y1="0" x2="1" y2="1"><stop stop-color="hsl(59 54% 7%)"/><stop offset=".55" stop-color="hsl(77 62% 12%)"/><stop offset="1" stop-color="#020407"/></linearGradient>
  <radialGradient id="glow-s61ab4513"><stop stop-color="hsl(178 96% 68%)" stop-opacity=".92"/><stop offset=".45" stop-color="hsl(230 94% 60%)" stop-opacity=".30"/><stop offset="1" stop-color="hsl(59 54% 7%)" stop-opacity="0"/></radialGradient>
  <linearGradient id="metal-s61ab4513" x1="0" y1="0" x2="1" y2="1"><stop stop-color="#f6ead1"/><stop offset=".35" stop-color="hsl(178 96% 68%)"/><stop offset=".7" stop-color="#4a525d"/><stop offset="1" stop-color="#0b1018"/></linearGradient>
  <pattern id="grid-s61ab4513" width="44" height="44" patternUnits="userSpaceOnUse"><path d="M100 0H0V100" fill="none" stroke="hsl(178 96% 68%)" stroke-opacity=".07"/></pattern>
  <filter id="blur-s61ab4513" x="-40%" y="-40%" width="180%" height="180%"><feGaussianBlur stdDeviation="8"/></filter>
  <clipPath id="clip-s61ab4513"><rect width="640" height="360" rx="24"/></clipPath>
  </defs><g clip-path="url(#clip-s61ab4513)"><rect width="640" height="360" fill="url(#bg-s61ab4513)"/><rect width="640" height="360" fill="url(#grid-s61ab4513)"/><circle cx="620" cy="240" r="1.8" fill="hsl(230 94% 60%)" opacity="0.59"/><circle cx="537" cy="228" r="1.0" fill="hsl(178 96% 68%)" opacity="0.31"/><circle cx="627" cy="21" r="2.2" fill="hsl(178 96% 68%)" opacity="0.30"/><circle cx="160" cy="51" r="2.3" fill="hsl(230 94% 60%)" opacity="0.63"/><circle cx="610" cy="21" r="1.1" fill="hsl(178 96% 68%)" opacity="0.26"/><circle cx="34" cy="172" r="2.2" fill="hsl(178 96% 68%)" opacity="0.37"/><circle cx="407" cy="111" r="2.5" fill="hsl(230 94% 60%)" opacity="0.65"/><circle cx="610" cy="158" r="0.9" fill="hsl(178 96% 68%)" opacity="0.57"/><circle cx="550" cy="68" r="1.1" fill="hsl(178 96% 68%)" opacity="0.36"/><circle cx="231" cy="113" r="1.4" fill="hsl(230 94% 60%)" opacity="0.61"/><circle cx="241" cy="288" r="3.5" fill="hsl(178 96% 68%)" opacity="0.68"/><circle cx="148" cy="350" r="1.3" fill="hsl(178 96% 68%)" opacity="0.46"/><circle cx="277" cy="74" r="0.9" fill="hsl(230 94% 60%)" opacity="0.52"/><circle cx="559" cy="326" r="3.4" fill="hsl(178 96% 68%)" opacity="0.64"/><circle cx="302" cy="296" r="3.4" fill="hsl(178 96% 68%)" opacity="0.43"/><circle cx="58" cy="321" r="1.7" fill="hsl(230 94% 60%)" opacity="0.47"/><circle cx="232" cy="80" r="2.7" fill="hsl(178 96% 68%)" opacity="0.54"/><circle cx="595" cy="224" r="1.3" fill="hsl(178 96% 68%)" opacity="0.69"/><path d="M0 302V188l78-56 64 42 92-98 80 116 72-70 65 64 88-99 101 107v108Z" fill="hsl(59 72% 34%)"/><path d="M0 302H640M82 132v170M234 76v226M386 122v180M539 87v215" stroke="hsl(178 96% 68%)" stroke-width="5" opacity=".55"/><rect x="24" y="210" width="22" height="18" fill="hsl(230 94% 60%)" opacity=".7"/><rect x="75" y="229" width="22" height="18" fill="hsl(230 94% 60%)" opacity=".7"/><rect x="126" y="248" width="22" height="18" fill="hsl(230 94% 60%)" opacity=".7"/><rect x="177" y="210" width="22" height="18" fill="hsl(230 94% 60%)" opacity=".7"/><rect x="228" y="229" width="22" height="18" fill="hsl(230 94% 60%)" opacity=".7"/><rect x="279" y="248" width="22" height="18" fill="hsl(230 94% 60%)" opacity=".7"/><rect x="330" y="210" width="22" height="18" fill="hsl(230 94% 60%)" opacity=".7"/><rect x="381" y="229" width="22" height="18" fill="hsl(230 94% 60%)" opacity=".7"/><rect x="432" y="248" width="22" height="18" fill="hsl(230 94% 60%)" opacity=".7"/><rect x="483" y="210" width="22" height="18" fill="hsl(230 94% 60%)" opacity=".7"/><rect x="534" y="229" width="22" height="18" fill="hsl(230 94% 60%)" opacity=".7"/><rect x="585" y="248" width="22" height="18" fill="hsl(230 94% 60%)" opacity=".7"/><path d="M501 56l38 65 75 13-52 55 10 76-71-33-70 33 10-76-53-55 75-13Z" fill="hsl(230 94% 60%)" opacity=".55"/><g transform="translate(415 142) rotate(200)"><circle r="132" fill="url(#glow-s61ab4513)"/><path d="M0-132L29-36 126-55 50 13 118 80 23 51 0 144-27 51-122 78-51 11-124-54-30-36Z" fill="hsl(178 96% 68%)" opacity=".62"/></g><g transform="translate(451 217) scale(-0.767535193618387 0.767535193618387)" fill="hsl(178 96% 68%)" opacity="0.52"><circle cy="-92" r="24"/><path d="M-30-68Q0-84 30-68L44 22 13 66H-15L-44 22Z"/><path d="M-19-48L-112-4-92 23 5-9ZM20-46L105-102 120-75 10-7ZM-16 55L-80 139-54 152 13 80ZM16 55L99 114 79 138-12 80Z"/></g><path d="M0 282Q179.20000000000002 229 339.20000000000005 299T640 274V360H0Z" fill="#02040a" opacity=".82"/><text x="28" y="320" fill="#fff5e7" font-family="Segoe UI,Arial,sans-serif" font-size="25" font-weight="700">Confusão com o Carteiro</text><text x="30" y="343" fill="hsl(178 96% 68%)" font-family="Segoe UI,Arial,sans-serif" font-size="12" letter-spacing="2">D</text><rect x="9" y="9" width="622" height="342" rx="19" fill="none" stroke="hsl(178 96% 68%)" stroke-opacity=".48" stroke-width="2"/></g></svg>