<svg xmlns="http://www.w3.org/2000/svg" width="512" height="512" viewBox="0 0 512 512"><metadata>{&quot;schema&quot;:&quot;SNS_VISUAL_V841&quot;,&quot;id&quot;:&quot;NPC_084&quot;,&quot;title&quot;:&quot;Kisame Hoshigaki&quot;,&quot;kind&quot;:&quot;npc&quot;,&quot;family&quot;:&quot;weapon&quot;,&quot;seed&quot;:2878503059,&quot;exclusive&quot;:true,&quot;externalImageReferences&quot;:0}</metadata><defs>
  <linearGradient id="bg-sab927893" x1="0" y1="0" x2="1" y2="1"><stop stop-color="hsl(41 54% 7%)"/><stop offset=".55" stop-color="hsl(59 62% 12%)"/><stop offset="1" stop-color="#020407"/></linearGradient>
  <radialGradient id="glow-sab927893"><stop stop-color="hsl(105 96% 68%)" stop-opacity=".92"/><stop offset=".45" stop-color="hsl(157 94% 60%)" stop-opacity=".30"/><stop offset="1" stop-color="hsl(41 54% 7%)" stop-opacity="0"/></radialGradient>
  <linearGradient id="metal-sab927893" x1="0" y1="0" x2="1" y2="1"><stop stop-color="#f6ead1"/><stop offset=".35" stop-color="hsl(105 96% 68%)"/><stop offset=".7" stop-color="#4a525d"/><stop offset="1" stop-color="#0b1018"/></linearGradient>
  <pattern id="grid-sab927893" width="40" height="40" patternUnits="userSpaceOnUse"><path d="M100 0H0V100" fill="none" stroke="hsl(105 96% 68%)" stroke-opacity=".07"/></pattern>
  <filter id="blur-sab927893" x="-40%" y="-40%" width="180%" height="180%"><feGaussianBlur stdDeviation="8"/></filter>
  <clipPath id="clip-sab927893"><rect width="512" height="512" rx="24"/></clipPath>
  </defs><g clip-path="url(#clip-sab927893)"><rect width="512" height="512" fill="url(#bg-sab927893)"/><circle cx="239" cy="280" r="210" fill="url(#glow-sab927893)" opacity=".5"/><circle cx="154" cy="159" r="2.2" fill="hsl(157 94% 60%)" opacity="0.47"/><circle cx="387" cy="131" r="2.2" fill="hsl(105 96% 68%)" opacity="0.45"/><circle cx="307" cy="487" r="3.1" fill="hsl(105 96% 68%)" opacity="0.66"/><circle cx="506" cy="402" r="1.2" fill="hsl(157 94% 60%)" opacity="0.28"/><circle cx="74" cy="487" r="1.7" fill="hsl(105 96% 68%)" opacity="0.38"/><circle cx="301" cy="457" r="3.2" fill="hsl(105 96% 68%)" opacity="0.73"/><circle cx="217" cy="476" r="3.1" fill="hsl(157 94% 60%)" opacity="0.31"/><circle cx="305" cy="315" r="2.4" fill="hsl(105 96% 68%)" opacity="0.63"/><circle cx="324" cy="279" r="3.1" fill="hsl(105 96% 68%)" opacity="0.43"/><circle cx="35" cy="369" r="1.6" fill="hsl(157 94% 60%)" opacity="0.32"/><circle cx="381" cy="495" r="1.6" fill="hsl(105 96% 68%)" opacity="0.61"/><circle cx="481" cy="224" r="3.3" fill="hsl(105 96% 68%)" opacity="0.17"/><circle cx="157" cy="497" r="2.7" fill="hsl(157 94% 60%)" opacity="0.26"/><circle cx="339" cy="184" r="3.5" fill="hsl(105 96% 68%)" opacity="0.70"/><circle cx="229" cy="284" r="1.7" fill="hsl(105 96% 68%)" opacity="0.72"/><circle cx="209" cy="184" r="1.0" fill="hsl(157 94% 60%)" opacity="0.17"/><g>
    <path d="M34 512Q52 379 151 328l52-29h106l52 29q99 51 117 184Z" fill="hsl(59 62% 12%)" stroke="hsl(105 96% 68%)" stroke-opacity=".35" stroke-width="7"/>
    <path d="M62 512Q77 397 169 347l48 101 39-42 39 42 48-101q92 50 107 165Z" fill="hsl(41 72% 34%)"/>
    <path d="M154 350l65 105 37-49 37 49 65-105M256 409v103" fill="none" stroke="hsl(157 94% 60%)" stroke-width="12" opacity=".68"/>
    <path d="M214 306v64q42 35 84 0v-64Z" fill="hsl(29 41% 73%)" stroke="#6c3d35" stroke-opacity=".36" stroke-width="5"/>
    <ellipse cx="139" cy="225" rx="24" ry="43" fill="hsl(29 41% 73%)" stroke="#6c3d35" stroke-width="5"/><ellipse cx="373" cy="225" rx="24" ry="43" fill="hsl(29 41% 73%)" stroke="#6c3d35" stroke-width="5"/>
    <path d="M139 170Q145 70 256 58T373 170v84q-11 78-74 118-43 30-86 0-63-40-74-118Z" fill="hsl(29 41% 73%)" stroke="hsl(105 96% 68%)" stroke-opacity=".30" stroke-width="6"/>
    <path d="M262 64q99 37 106 117v76q-14 75-77 110 42-91 21-189Z" fill="#4b2330" opacity=".13"/>
    <path d="M101 225Q104 80 246 52l-7-46 58 47 27-39 17 65q70 49 54 146l-48-53-31 63-48-91-44 91-37-79-61 87Z" fill="hsl(299 59% 20%)" stroke="hsl(105 96% 68%)" stroke-opacity=".38" stroke-width="5"/><path d="M151 126Q249 57 356 126M174 158Q255 96 337 157" fill="none" stroke="hsl(105 96% 68%)" stroke-opacity=".16" stroke-width="13" stroke-linecap="round"/>
    
    <path d="M163 215Q199 184 235 210M277 210Q313 184 349 215" fill="none" stroke="#28151a" stroke-width="11" stroke-linecap="round"/>
    <path d="M165 225Q199 199 235 224 198 249 165 225ZM277 224Q313 199 348 225 314 249 277 224Z" fill="#fff8e9" stroke="#4a2526" stroke-width="4"/>
    <ellipse cx="201" cy="224" rx="16" ry="20" fill="hsl(82 88% 62%)"/><ellipse cx="312" cy="224" rx="16" ry="20" fill="hsl(79 88% 60%)"/><circle cx="201" cy="225" r="8"/><circle cx="312" cy="225" r="8"/><circle cx="195" cy="217" r="5" fill="white"/><circle cx="306" cy="217" r="5" fill="white"/>
    <path d="M247 228q-5 35-14 55l25 10 18-8" fill="none" stroke="#8b5045" stroke-width="6" stroke-linecap="round"/><path d="M210 321Q256 344 304 319" fill="none" stroke="#6f3436" stroke-width="7" stroke-linecap="round"/>
    
    
    
    <path d="M424 484L111 117" stroke="#11151e" stroke-width="36"/><path d="M419 469L127 126" stroke="url(#metal-sab927893)" stroke-width="18"/><path d="M157 166l-53-51M143 151l-48 39" stroke="hsl(157 94% 60%)" stroke-width="14"/>
    <path d="M86 497Q256 421 426 497" fill="none" stroke="hsl(105 96% 68%)" stroke-opacity=".17" stroke-width="10"/>
  </g><rect x="10" y="10" width="492" height="492" rx="18" fill="none" stroke="hsl(105 96% 68%)" stroke-width="3" opacity=".55"/></g></svg>