<svg xmlns="http://www.w3.org/2000/svg" width="640" height="360" viewBox="0 0 640 360"><metadata>{&quot;schema&quot;:&quot;SNS_VISUAL_V841&quot;,&quot;id&quot;:&quot;KURAI_CORTE_HORIZONTE&quot;,&quot;title&quot;:&quot;Kurai: Corte de Horizonte&quot;,&quot;kind&quot;:&quot;technique:leon&quot;,&quot;family&quot;:&quot;space&quot;,&quot;seed&quot;:644001715,&quot;exclusive&quot;:true,&quot;externalImageReferences&quot;:0}</metadata><defs>
  <linearGradient id="bg-s2662afb3" x1="0" y1="0" x2="1" y2="1"><stop stop-color="hsl(263 54% 7%)"/><stop offset=".55" stop-color="hsl(281 62% 12%)"/><stop offset="1" stop-color="#020407"/></linearGradient>
  <radialGradient id="glow-s2662afb3"><stop stop-color="hsl(32 96% 68%)" stop-opacity=".92"/><stop offset=".45" stop-color="hsl(84 94% 60%)" stop-opacity=".30"/><stop offset="1" stop-color="hsl(263 54% 7%)" stop-opacity="0"/></radialGradient>
  <linearGradient id="metal-s2662afb3" x1="0" y1="0" x2="1" y2="1"><stop stop-color="#f6ead1"/><stop offset=".35" stop-color="hsl(32 96% 68%)"/><stop offset=".7" stop-color="#4a525d"/><stop offset="1" stop-color="#0b1018"/></linearGradient>
  <pattern id="grid-s2662afb3" width="55" height="55" patternUnits="userSpaceOnUse"><path d="M100 0H0V100" fill="none" stroke="hsl(32 96% 68%)" stroke-opacity=".07"/></pattern>
  <filter id="blur-s2662afb3" x="-40%" y="-40%" width="180%" height="180%"><feGaussianBlur stdDeviation="8"/></filter>
  <clipPath id="clip-s2662afb3"><rect width="640" height="360" rx="24"/></clipPath>
  </defs><g clip-path="url(#clip-s2662afb3)"><rect width="640" height="360" fill="url(#bg-s2662afb3)"/><rect width="640" height="360" fill="url(#grid-s2662afb3)"/><circle cx="589" cy="187" r="3.3" fill="hsl(84 94% 60%)" opacity="0.16"/><circle cx="406" cy="91" r="1.8" fill="hsl(32 96% 68%)" opacity="0.36"/><circle cx="348" cy="163" r="3.3" fill="hsl(32 96% 68%)" opacity="0.56"/><circle cx="345" cy="67" r="1.2" fill="hsl(84 94% 60%)" opacity="0.63"/><circle cx="568" cy="26" r="0.7" fill="hsl(32 96% 68%)" opacity="0.52"/><circle cx="79" cy="191" r="3.3" fill="hsl(32 96% 68%)" opacity="0.64"/><circle cx="181" cy="201" r="1.8" fill="hsl(84 94% 60%)" opacity="0.70"/><circle cx="519" cy="337" r="1.2" fill="hsl(32 96% 68%)" opacity="0.53"/><circle cx="587" cy="157" r="2.2" fill="hsl(32 96% 68%)" opacity="0.73"/><circle cx="458" cy="169" r="2.3" fill="hsl(84 94% 60%)" opacity="0.23"/><circle cx="539" cy="306" r="2.3" fill="hsl(32 96% 68%)" opacity="0.31"/><circle cx="332" cy="48" r="3.1" fill="hsl(32 96% 68%)" opacity="0.56"/><circle cx="118" cy="339" r="2.4" fill="hsl(84 94% 60%)" opacity="0.37"/><circle cx="597" cy="12" r="2.3" fill="hsl(32 96% 68%)" opacity="0.76"/><circle cx="557" cy="4" r="1.1" fill="hsl(32 96% 68%)" opacity="0.43"/><circle cx="635" cy="220" r="1.1" fill="hsl(84 94% 60%)" opacity="0.45"/><circle cx="564" cy="102" r="1.8" fill="hsl(32 96% 68%)" opacity="0.37"/><circle cx="519" cy="203" r="3.1" fill="hsl(32 96% 68%)" opacity="0.63"/><g transform="translate(226 89) rotate(214)" fill="none"><ellipse rx="172" ry="68" stroke="hsl(32 96% 68%)" stroke-width="7"/><ellipse rx="124" ry="124" stroke="hsl(84 94% 60%)" stroke-width="4" stroke-dasharray="20 13"/><circle r="58" fill="#02030a" stroke="hsl(32 96% 68%)" stroke-width="4"/><path d="M-230 0H230M0-154V154" stroke="hsl(84 94% 60%)" stroke-width="2" opacity=".6"/></g><g transform="translate(322 197) scale(0.8240603330475278 0.8240603330475278)" fill="hsl(32 96% 68%)" opacity="0.52"><circle cy="-92" r="24"/><path d="M-30-68Q0-84 30-68L44 22 13 66H-15L-44 22Z"/><path d="M-19-48L-112-4-92 23 5-9ZM20-46L105-102 120-75 10-7ZM-16 55L-80 139-54 152 13 80ZM16 55L99 114 79 138-12 80Z"/></g><path d="M0 282Q179.20000000000002 229 339.20000000000005 307T640 274V360H0Z" fill="#02040a" opacity=".82"/><text x="28" y="320" fill="#fff5e7" font-family="Segoe UI,Arial,sans-serif" font-size="25" font-weight="700">Kurai: Corte de Horizonte</text><text x="30" y="343" fill="hsl(32 96% 68%)" font-family="Segoe UI,Arial,sans-serif" font-size="12" letter-spacing="2">TÉCNICA • KENJUTSU OFENSIVO ESPACIAL</text><rect x="9" y="9" width="622" height="342" rx="19" fill="none" stroke="hsl(32 96% 68%)" stroke-opacity=".48" stroke-width="2"/></g></svg>