<svg xmlns="http://www.w3.org/2000/svg" width="640" height="360" viewBox="0 0 640 360"><metadata>{&quot;schema&quot;:&quot;SNS_VISUAL_V841&quot;,&quot;id&quot;:&quot;KUSENRO_POEIRA_DE_CONSTELACAO&quot;,&quot;title&quot;:&quot;Poeira de Constelação&quot;,&quot;kind&quot;:&quot;technique:leon&quot;,&quot;family&quot;:&quot;shinobi&quot;,&quot;seed&quot;:561997917,&quot;exclusive&quot;:true,&quot;externalImageReferences&quot;:0}</metadata><defs>
  <linearGradient id="bg-s217f685d" x1="0" y1="0" x2="1" y2="1"><stop stop-color="hsl(49 54% 7%)"/><stop offset=".55" stop-color="hsl(67 62% 12%)"/><stop offset="1" stop-color="#020407"/></linearGradient>
  <radialGradient id="glow-s217f685d"><stop stop-color="hsl(180 96% 68%)" stop-opacity=".92"/><stop offset=".45" stop-color="hsl(232 94% 60%)" stop-opacity=".30"/><stop offset="1" stop-color="hsl(49 54% 7%)" stop-opacity="0"/></radialGradient>
  <linearGradient id="metal-s217f685d" x1="0" y1="0" x2="1" y2="1"><stop stop-color="#f6ead1"/><stop offset=".35" stop-color="hsl(180 96% 68%)"/><stop offset=".7" stop-color="#4a525d"/><stop offset="1" stop-color="#0b1018"/></linearGradient>
  <pattern id="grid-s217f685d" width="30" height="30" patternUnits="userSpaceOnUse"><path d="M100 0H0V100" fill="none" stroke="hsl(180 96% 68%)" stroke-opacity=".07"/></pattern>
  <filter id="blur-s217f685d" x="-40%" y="-40%" width="180%" height="180%"><feGaussianBlur stdDeviation="10"/></filter>
  <clipPath id="clip-s217f685d"><rect width="640" height="360" rx="24"/></clipPath>
  </defs><g clip-path="url(#clip-s217f685d)"><rect width="640" height="360" fill="url(#bg-s217f685d)"/><rect width="640" height="360" fill="url(#grid-s217f685d)"/><circle cx="101" cy="327" r="1.8" fill="hsl(232 94% 60%)" opacity="0.42"/><circle cx="63" cy="111" r="2.2" fill="hsl(180 96% 68%)" opacity="0.75"/><circle cx="151" cy="75" r="2.0" fill="hsl(180 96% 68%)" opacity="0.46"/><circle cx="323" cy="108" r="3.4" fill="hsl(232 94% 60%)" opacity="0.48"/><circle cx="40" cy="168" r="2.2" fill="hsl(180 96% 68%)" opacity="0.64"/><circle cx="214" cy="133" r="2.3" fill="hsl(180 96% 68%)" opacity="0.71"/><circle cx="16" cy="103" r="1.9" fill="hsl(232 94% 60%)" opacity="0.58"/><circle cx="116" cy="34" r="1.8" fill="hsl(180 96% 68%)" opacity="0.30"/><circle cx="70" cy="134" r="1.7" fill="hsl(180 96% 68%)" opacity="0.23"/><circle cx="598" cy="141" r="1.9" fill="hsl(232 94% 60%)" opacity="0.31"/><circle cx="529" cy="202" r="2.3" fill="hsl(180 96% 68%)" opacity="0.45"/><circle cx="459" cy="256" r="1.1" fill="hsl(180 96% 68%)" opacity="0.34"/><circle cx="4" cy="279" r="2.7" fill="hsl(232 94% 60%)" opacity="0.20"/><circle cx="367" cy="192" r="2.3" fill="hsl(180 96% 68%)" opacity="0.53"/><circle cx="500" cy="158" r="2.5" fill="hsl(180 96% 68%)" opacity="0.41"/><circle cx="313" cy="288" r="1.2" fill="hsl(232 94% 60%)" opacity="0.69"/><circle cx="600" cy="210" r="2.5" fill="hsl(180 96% 68%)" opacity="0.54"/><circle cx="188" cy="135" r="3.4" fill="hsl(180 96% 68%)" opacity="0.68"/><g transform="translate(264 183) rotate(169)"><circle r="132" fill="url(#glow-s217f685d)"/><path d="M0-132L29-36 126-55 50 13 118 80 23 51 0 144-27 51-122 78-51 11-124-54-30-36Z" fill="hsl(180 96% 68%)" opacity=".62"/></g><g transform="translate(249 221) scale(0.8269641023757868 0.8269641023757868)" fill="hsl(180 96% 68%)" opacity="0.52"><circle cy="-92" r="24"/><path d="M-30-68Q0-84 30-68L44 22 13 66H-15L-44 22Z"/><path d="M-19-48L-112-4-92 23 5-9ZM20-46L105-102 120-75 10-7ZM-16 55L-80 139-54 152 13 80ZM16 55L99 114 79 138-12 80Z"/></g><path d="M0 282Q179.20000000000002 219 339.20000000000005 309T640 274V360H0Z" fill="#02040a" opacity=".82"/><text x="28" y="320" fill="#fff5e7" font-family="Segoe UI,Arial,sans-serif" font-size="25" font-weight="700">Poeira de Constelação</text><text x="30" y="343" fill="hsl(180 96% 68%)" font-family="Segoe UI,Arial,sans-serif" font-size="12" letter-spacing="2">TÉCNICA • CONTROLE DE CAMPO ESTELAR</text><rect x="9" y="9" width="622" height="342" rx="19" fill="none" stroke="hsl(180 96% 68%)" stroke-opacity=".48" stroke-width="2"/></g></svg>