<svg xmlns="http://www.w3.org/2000/svg" width="640" height="360" viewBox="0 0 640 360"><metadata>{&quot;schema&quot;:&quot;SNS_VISUAL_V841&quot;,&quot;id&quot;:&quot;ambidestria&quot;,&quot;title&quot;:&quot;Ambidestria&quot;,&quot;kind&quot;:&quot;aptitudes&quot;,&quot;family&quot;:&quot;weapon&quot;,&quot;seed&quot;:1366619886,&quot;exclusive&quot;:true,&quot;externalImageReferences&quot;:0}</metadata><defs>
  <linearGradient id="bg-s5174f6ee" x1="0" y1="0" x2="1" y2="1"><stop stop-color="hsl(18 54% 7%)"/><stop offset=".55" stop-color="hsl(36 62% 12%)"/><stop offset="1" stop-color="#020407"/></linearGradient>
  <radialGradient id="glow-s5174f6ee"><stop stop-color="hsl(134 96% 68%)" stop-opacity=".92"/><stop offset=".45" stop-color="hsl(186 94% 60%)" stop-opacity=".30"/><stop offset="1" stop-color="hsl(18 54% 7%)" stop-opacity="0"/></radialGradient>
  <linearGradient id="metal-s5174f6ee" x1="0" y1="0" x2="1" y2="1"><stop stop-color="#f6ead1"/><stop offset=".35" stop-color="hsl(134 96% 68%)"/><stop offset=".7" stop-color="#4a525d"/><stop offset="1" stop-color="#0b1018"/></linearGradient>
  <pattern id="grid-s5174f6ee" width="42" height="42" patternUnits="userSpaceOnUse"><path d="M100 0H0V100" fill="none" stroke="hsl(134 96% 68%)" stroke-opacity=".07"/></pattern>
  <filter id="blur-s5174f6ee" x="-40%" y="-40%" width="180%" height="180%"><feGaussianBlur stdDeviation="11"/></filter>
  <clipPath id="clip-s5174f6ee"><rect width="640" height="360" rx="24"/></clipPath>
  </defs><g clip-path="url(#clip-s5174f6ee)"><rect width="640" height="360" fill="url(#bg-s5174f6ee)"/><rect width="640" height="360" fill="url(#grid-s5174f6ee)"/><circle cx="532" cy="141" r="1.6" fill="hsl(186 94% 60%)" opacity="0.49"/><circle cx="50" cy="110" r="0.7" fill="hsl(134 96% 68%)" opacity="0.47"/><circle cx="128" cy="44" r="2.5" fill="hsl(134 96% 68%)" opacity="0.16"/><circle cx="234" cy="215" r="2.6" fill="hsl(186 94% 60%)" opacity="0.77"/><circle cx="274" cy="265" r="3.1" fill="hsl(134 96% 68%)" opacity="0.24"/><circle cx="282" cy="168" r="1.9" fill="hsl(134 96% 68%)" opacity="0.75"/><circle cx="287" cy="213" r="2.2" fill="hsl(186 94% 60%)" opacity="0.38"/><circle cx="13" cy="16" r="1.6" fill="hsl(134 96% 68%)" opacity="0.59"/><circle cx="468" cy="84" r="2.5" fill="hsl(134 96% 68%)" opacity="0.77"/><circle cx="98" cy="173" r="2.5" fill="hsl(186 94% 60%)" opacity="0.66"/><circle cx="496" cy="319" r="3.2" fill="hsl(134 96% 68%)" opacity="0.63"/><circle cx="259" cy="163" r="1.9" fill="hsl(134 96% 68%)" opacity="0.59"/><circle cx="526" cy="349" r="2.9" fill="hsl(186 94% 60%)" opacity="0.33"/><circle cx="126" cy="5" r="2.7" fill="hsl(134 96% 68%)" opacity="0.61"/><circle cx="455" cy="170" r="3.0" fill="hsl(134 96% 68%)" opacity="0.47"/><circle cx="576" cy="193" r="1.5" fill="hsl(186 94% 60%)" opacity="0.50"/><circle cx="240" cy="310" r="2.7" fill="hsl(134 96% 68%)" opacity="0.75"/><circle cx="569" cy="201" r="1.3" fill="hsl(134 96% 68%)" opacity="0.54"/><circle cx="320" cy="150" r="142" fill="url(#glow-s5174f6ee)"/><g transform="translate(320 150) scale(.78)" fill="hsl(18 72% 34%)" stroke="hsl(134 96% 68%)" stroke-width="9" stroke-linejoin="round"><path d="M0-120 28-32 64-10 34 47 8 69-53-24-53 24 8-69-34-47-64 10Z"/></g><circle cx="532" cy="141" r="1.6" fill="hsl(186 94% 60%)" opacity="0.49"/><circle cx="50" cy="110" r="0.7" fill="hsl(134 96% 68%)" opacity="0.47"/><circle cx="128" cy="44" r="2.5" fill="hsl(134 96% 68%)" opacity="0.16"/><circle cx="234" cy="215" r="2.6" fill="hsl(186 94% 60%)" opacity="0.77"/><circle cx="274" cy="265" r="3.1" fill="hsl(134 96% 68%)" opacity="0.24"/><circle cx="282" cy="168" r="1.9" fill="hsl(134 96% 68%)" opacity="0.75"/><circle cx="287" cy="213" r="2.2" fill="hsl(186 94% 60%)" opacity="0.38"/><circle cx="13" cy="16" r="1.6" fill="hsl(134 96% 68%)" opacity="0.59"/><circle cx="468" cy="84" r="2.5" fill="hsl(134 96% 68%)" opacity="0.77"/><circle cx="98" cy="173" r="2.5" fill="hsl(186 94% 60%)" opacity="0.66"/><circle cx="496" cy="319" r="3.2" fill="hsl(134 96% 68%)" opacity="0.63"/><circle cx="259" cy="163" r="1.9" fill="hsl(134 96% 68%)" opacity="0.59"/><path d="M0 282Q179.20000000000002 234 339.20000000000005 294T640 274V360H0Z" fill="#02040a" opacity=".82"/><text x="28" y="320" fill="#fff5e7" font-family="Segoe UI,Arial,sans-serif" font-size="25" font-weight="700">Ambidestria</text><text x="30" y="343" fill="hsl(134 96% 68%)" font-family="Segoe UI,Arial,sans-serif" font-size="12" letter-spacing="2">PERMITE ATACAR COM DUAS ARMAS LEVES.</text><rect x="9" y="9" width="622" height="342" rx="19" fill="none" stroke="hsl(134 96% 68%)" stroke-opacity=".48" stroke-width="2"/></g></svg>