<svg xmlns="http://www.w3.org/2000/svg" width="640" height="360" viewBox="0 0 640 360"><metadata>{&quot;schema&quot;:&quot;SNS_VISUAL_V841&quot;,&quot;id&quot;:&quot;intuicao&quot;,&quot;title&quot;:&quot;Intuição&quot;,&quot;kind&quot;:&quot;aptitudes&quot;,&quot;family&quot;:&quot;shinobi&quot;,&quot;seed&quot;:2161898425,&quot;exclusive&quot;:true,&quot;externalImageReferences&quot;:0}</metadata><defs>
  <linearGradient id="bg-s80dbf3b9" x1="0" y1="0" x2="1" y2="1"><stop stop-color="hsl(13 54% 7%)"/><stop offset=".55" stop-color="hsl(31 62% 12%)"/><stop offset="1" stop-color="#020407"/></linearGradient>
  <radialGradient id="glow-s80dbf3b9"><stop stop-color="hsl(112 96% 68%)" stop-opacity=".92"/><stop offset=".45" stop-color="hsl(164 94% 60%)" stop-opacity=".30"/><stop offset="1" stop-color="hsl(13 54% 7%)" stop-opacity="0"/></radialGradient>
  <linearGradient id="metal-s80dbf3b9" x1="0" y1="0" x2="1" y2="1"><stop stop-color="#f6ead1"/><stop offset=".35" stop-color="hsl(112 96% 68%)"/><stop offset=".7" stop-color="#4a525d"/><stop offset="1" stop-color="#0b1018"/></linearGradient>
  <pattern id="grid-s80dbf3b9" width="55" height="55" patternUnits="userSpaceOnUse"><path d="M100 0H0V100" fill="none" stroke="hsl(112 96% 68%)" stroke-opacity=".07"/></pattern>
  <filter id="blur-s80dbf3b9" x="-40%" y="-40%" width="180%" height="180%"><feGaussianBlur stdDeviation="6"/></filter>
  <clipPath id="clip-s80dbf3b9"><rect width="640" height="360" rx="24"/></clipPath>
  </defs><g clip-path="url(#clip-s80dbf3b9)"><rect width="640" height="360" fill="url(#bg-s80dbf3b9)"/><rect width="640" height="360" fill="url(#grid-s80dbf3b9)"/><circle cx="232" cy="194" r="1.0" fill="hsl(164 94% 60%)" opacity="0.27"/><circle cx="452" cy="303" r="1.2" fill="hsl(112 96% 68%)" opacity="0.32"/><circle cx="176" cy="171" r="2.9" fill="hsl(112 96% 68%)" opacity="0.55"/><circle cx="408" cy="298" r="1.9" fill="hsl(164 94% 60%)" opacity="0.31"/><circle cx="49" cy="69" r="2.4" fill="hsl(112 96% 68%)" opacity="0.66"/><circle cx="134" cy="254" r="1.3" fill="hsl(112 96% 68%)" opacity="0.58"/><circle cx="551" cy="332" r="3.3" fill="hsl(164 94% 60%)" opacity="0.69"/><circle cx="132" cy="319" r="3.2" fill="hsl(112 96% 68%)" opacity="0.29"/><circle cx="439" cy="241" r="1.7" fill="hsl(112 96% 68%)" opacity="0.48"/><circle cx="410" cy="238" r="1.9" fill="hsl(164 94% 60%)" opacity="0.27"/><circle cx="335" cy="268" r="0.9" fill="hsl(112 96% 68%)" opacity="0.21"/><circle cx="465" cy="163" r="2.6" fill="hsl(112 96% 68%)" opacity="0.54"/><circle cx="4" cy="180" r="2.3" fill="hsl(164 94% 60%)" opacity="0.59"/><circle cx="378" cy="112" r="3.4" fill="hsl(112 96% 68%)" opacity="0.49"/><circle cx="253" cy="88" r="0.8" fill="hsl(112 96% 68%)" opacity="0.24"/><circle cx="309" cy="169" r="2.0" fill="hsl(164 94% 60%)" opacity="0.51"/><circle cx="125" cy="201" r="1.5" fill="hsl(112 96% 68%)" opacity="0.70"/><circle cx="40" cy="349" r="0.7" fill="hsl(112 96% 68%)" opacity="0.29"/><circle cx="320" cy="150" r="142" fill="url(#glow-s80dbf3b9)"/><g transform="translate(320 150) scale(.78)" fill="hsl(13 72% 34%)" stroke="hsl(112 96% 68%)" stroke-width="9" stroke-linejoin="round"><path d="M0-120 28-32 64-10 34 47 8 69-53-24-53 24 8-69-34-47-64 10Z"/></g><circle cx="232" cy="194" r="1.0" fill="hsl(164 94% 60%)" opacity="0.27"/><circle cx="452" cy="303" r="1.2" fill="hsl(112 96% 68%)" opacity="0.32"/><circle cx="176" cy="171" r="2.9" fill="hsl(112 96% 68%)" opacity="0.55"/><circle cx="408" cy="298" r="1.9" fill="hsl(164 94% 60%)" opacity="0.31"/><circle cx="49" cy="69" r="2.4" fill="hsl(112 96% 68%)" opacity="0.66"/><circle cx="134" cy="254" r="1.3" fill="hsl(112 96% 68%)" opacity="0.58"/><circle cx="551" cy="332" r="3.3" fill="hsl(164 94% 60%)" opacity="0.69"/><circle cx="132" cy="319" r="3.2" fill="hsl(112 96% 68%)" opacity="0.29"/><circle cx="439" cy="241" r="1.7" fill="hsl(112 96% 68%)" opacity="0.48"/><circle cx="410" cy="238" r="1.9" fill="hsl(164 94% 60%)" opacity="0.27"/><circle cx="335" cy="268" r="0.9" fill="hsl(112 96% 68%)" opacity="0.21"/><circle cx="465" cy="163" r="2.6" fill="hsl(112 96% 68%)" opacity="0.54"/><path d="M0 282Q179.20000000000002 223 339.20000000000005 289T640 274V360H0Z" fill="#02040a" opacity=".82"/><text x="28" y="320" fill="#fff5e7" font-family="Segoe UI,Arial,sans-serif" font-size="25" font-weight="700">Intuição</text><text x="30" y="343" fill="hsl(112 96% 68%)" font-family="Segoe UI,Arial,sans-serif" font-size="12" letter-spacing="2">MELHORA LER MOVIMENTO E MANOBRAS DE PREVISÃO.</text><rect x="9" y="9" width="622" height="342" rx="19" fill="none" stroke="hsl(112 96% 68%)" stroke-opacity=".48" stroke-width="2"/></g></svg>