<svg xmlns="http://www.w3.org/2000/svg" width="640" height="360" viewBox="0 0 640 360"><metadata>{&quot;schema&quot;:&quot;SNS_VISUAL_V841&quot;,&quot;id&quot;:&quot;punho_ferro&quot;,&quot;title&quot;:&quot;Punho de Ferro&quot;,&quot;kind&quot;:&quot;aptitudes&quot;,&quot;family&quot;:&quot;weapon&quot;,&quot;seed&quot;:4143523263,&quot;exclusive&quot;:true,&quot;externalImageReferences&quot;:0}</metadata><defs>
  <linearGradient id="bg-sf6f925bf" x1="0" y1="0" x2="1" y2="1"><stop stop-color="hsl(15 54% 7%)"/><stop offset=".55" stop-color="hsl(33 62% 12%)"/><stop offset="1" stop-color="#020407"/></linearGradient>
  <radialGradient id="glow-sf6f925bf"><stop stop-color="hsl(118 96% 68%)" stop-opacity=".92"/><stop offset=".45" stop-color="hsl(170 94% 60%)" stop-opacity=".30"/><stop offset="1" stop-color="hsl(15 54% 7%)" stop-opacity="0"/></radialGradient>
  <linearGradient id="metal-sf6f925bf" x1="0" y1="0" x2="1" y2="1"><stop stop-color="#f6ead1"/><stop offset=".35" stop-color="hsl(118 96% 68%)"/><stop offset=".7" stop-color="#4a525d"/><stop offset="1" stop-color="#0b1018"/></linearGradient>
  <pattern id="grid-sf6f925bf" width="51" height="51" patternUnits="userSpaceOnUse"><path d="M100 0H0V100" fill="none" stroke="hsl(118 96% 68%)" stroke-opacity=".07"/></pattern>
  <filter id="blur-sf6f925bf" x="-40%" y="-40%" width="180%" height="180%"><feGaussianBlur stdDeviation="12"/></filter>
  <clipPath id="clip-sf6f925bf"><rect width="640" height="360" rx="24"/></clipPath>
  </defs><g clip-path="url(#clip-sf6f925bf)"><rect width="640" height="360" fill="url(#bg-sf6f925bf)"/><rect width="640" height="360" fill="url(#grid-sf6f925bf)"/><circle cx="582" cy="169" r="2.9" fill="hsl(170 94% 60%)" opacity="0.22"/><circle cx="376" cy="112" r="2.7" fill="hsl(118 96% 68%)" opacity="0.18"/><circle cx="55" cy="337" r="1.9" fill="hsl(118 96% 68%)" opacity="0.44"/><circle cx="293" cy="144" r="1.2" fill="hsl(170 94% 60%)" opacity="0.24"/><circle cx="213" cy="237" r="2.1" fill="hsl(118 96% 68%)" opacity="0.60"/><circle cx="356" cy="306" r="0.8" fill="hsl(118 96% 68%)" opacity="0.29"/><circle cx="522" cy="287" r="0.9" fill="hsl(170 94% 60%)" opacity="0.48"/><circle cx="505" cy="248" r="3.5" fill="hsl(118 96% 68%)" opacity="0.45"/><circle cx="187" cy="25" r="2.9" fill="hsl(118 96% 68%)" opacity="0.61"/><circle cx="54" cy="174" r="0.9" fill="hsl(170 94% 60%)" opacity="0.73"/><circle cx="137" cy="267" r="1.6" fill="hsl(118 96% 68%)" opacity="0.76"/><circle cx="76" cy="159" r="2.8" fill="hsl(118 96% 68%)" opacity="0.18"/><circle cx="320" cy="346" r="2.7" fill="hsl(170 94% 60%)" opacity="0.21"/><circle cx="330" cy="278" r="0.9" fill="hsl(118 96% 68%)" opacity="0.51"/><circle cx="506" cy="110" r="1.7" fill="hsl(118 96% 68%)" opacity="0.62"/><circle cx="609" cy="220" r="2.2" fill="hsl(170 94% 60%)" opacity="0.25"/><circle cx="592" cy="146" r="2.3" fill="hsl(118 96% 68%)" opacity="0.29"/><circle cx="248" cy="49" r="2.5" fill="hsl(118 96% 68%)" opacity="0.19"/><circle cx="320" cy="150" r="142" fill="url(#glow-sf6f925bf)"/><g transform="translate(320 150) scale(.78)" fill="hsl(15 72% 34%)" stroke="hsl(118 96% 68%)" stroke-width="9" stroke-linejoin="round"><path d="M0-120 28-32 64-10 34 47 8 69-53-24-53 24 8-69-34-47-64 10Z"/></g><circle cx="582" cy="169" r="2.9" fill="hsl(170 94% 60%)" opacity="0.22"/><circle cx="376" cy="112" r="2.7" fill="hsl(118 96% 68%)" opacity="0.18"/><circle cx="55" cy="337" r="1.9" fill="hsl(118 96% 68%)" opacity="0.44"/><circle cx="293" cy="144" r="1.2" fill="hsl(170 94% 60%)" opacity="0.24"/><circle cx="213" cy="237" r="2.1" fill="hsl(118 96% 68%)" opacity="0.60"/><circle cx="356" cy="306" r="0.8" fill="hsl(118 96% 68%)" opacity="0.29"/><circle cx="522" cy="287" r="0.9" fill="hsl(170 94% 60%)" opacity="0.48"/><circle cx="505" cy="248" r="3.5" fill="hsl(118 96% 68%)" opacity="0.45"/><circle cx="187" cy="25" r="2.9" fill="hsl(118 96% 68%)" opacity="0.61"/><circle cx="54" cy="174" r="0.9" fill="hsl(170 94% 60%)" opacity="0.73"/><circle cx="137" cy="267" r="1.6" fill="hsl(118 96% 68%)" opacity="0.76"/><circle cx="76" cy="159" r="2.8" fill="hsl(118 96% 68%)" opacity="0.18"/><path d="M0 282Q179.20000000000002 217 339.20000000000005 303T640 274V360H0Z" fill="#02040a" opacity=".82"/><text x="28" y="320" fill="#fff5e7" font-family="Segoe UI,Arial,sans-serif" font-size="25" font-weight="700">Punho de Ferro</text><text x="30" y="343" fill="hsl(118 96% 68%)" font-family="Segoe UI,Arial,sans-serif" font-size="12" letter-spacing="2">AUMENTA O DANO DE ATAQUES DESARMADOS.</text><rect x="9" y="9" width="622" height="342" rx="19" fill="none" stroke="hsl(118 96% 68%)" stroke-opacity=".48" stroke-width="2"/></g></svg>