<svg xmlns="http://www.w3.org/2000/svg" width="640" height="360" viewBox="0 0 640 360"><metadata>{&quot;schema&quot;:&quot;SNS_VISUAL_V841&quot;,&quot;id&quot;:&quot;continue&quot;,&quot;title&quot;:&quot;Continuar cena&quot;,&quot;kind&quot;:&quot;actions&quot;,&quot;family&quot;:&quot;shinobi&quot;,&quot;seed&quot;:1099318409,&quot;exclusive&quot;:true,&quot;externalImageReferences&quot;:0}</metadata><defs>
  <linearGradient id="bg-s41864489" x1="0" y1="0" x2="1" y2="1"><stop stop-color="hsl(21 54% 7%)"/><stop offset=".55" stop-color="hsl(39 62% 12%)"/><stop offset="1" stop-color="#020407"/></linearGradient>
  <radialGradient id="glow-s41864489"><stop stop-color="hsl(105 96% 68%)" stop-opacity=".92"/><stop offset=".45" stop-color="hsl(157 94% 60%)" stop-opacity=".30"/><stop offset="1" stop-color="hsl(21 54% 7%)" stop-opacity="0"/></radialGradient>
  <linearGradient id="metal-s41864489" x1="0" y1="0" x2="1" y2="1"><stop stop-color="#f6ead1"/><stop offset=".35" stop-color="hsl(105 96% 68%)"/><stop offset=".7" stop-color="#4a525d"/><stop offset="1" stop-color="#0b1018"/></linearGradient>
  <pattern id="grid-s41864489" width="33" height="33" patternUnits="userSpaceOnUse"><path d="M100 0H0V100" fill="none" stroke="hsl(105 96% 68%)" stroke-opacity=".07"/></pattern>
  <filter id="blur-s41864489" x="-40%" y="-40%" width="180%" height="180%"><feGaussianBlur stdDeviation="6"/></filter>
  <clipPath id="clip-s41864489"><rect width="640" height="360" rx="24"/></clipPath>
  </defs><g clip-path="url(#clip-s41864489)"><rect width="640" height="360" fill="url(#bg-s41864489)"/><rect width="640" height="360" fill="url(#grid-s41864489)"/><circle cx="212" cy="199" r="2.6" fill="hsl(157 94% 60%)" opacity="0.63"/><circle cx="164" cy="68" r="1.0" fill="hsl(105 96% 68%)" opacity="0.54"/><circle cx="534" cy="175" r="1.9" fill="hsl(105 96% 68%)" opacity="0.36"/><circle cx="406" cy="267" r="1.6" fill="hsl(157 94% 60%)" opacity="0.55"/><circle cx="636" cy="38" r="2.9" fill="hsl(105 96% 68%)" opacity="0.63"/><circle cx="241" cy="165" r="1.3" fill="hsl(105 96% 68%)" opacity="0.54"/><circle cx="551" cy="326" r="2.5" fill="hsl(157 94% 60%)" opacity="0.33"/><circle cx="466" cy="239" r="1.1" fill="hsl(105 96% 68%)" opacity="0.27"/><circle cx="404" cy="191" r="1.3" fill="hsl(105 96% 68%)" opacity="0.45"/><circle cx="430" cy="87" r="2.0" fill="hsl(157 94% 60%)" opacity="0.23"/><circle cx="594" cy="63" r="2.5" fill="hsl(105 96% 68%)" opacity="0.37"/><circle cx="612" cy="206" r="1.2" fill="hsl(105 96% 68%)" opacity="0.62"/><circle cx="78" cy="80" r="1.0" fill="hsl(157 94% 60%)" opacity="0.56"/><circle cx="554" cy="272" r="3.0" fill="hsl(105 96% 68%)" opacity="0.51"/><circle cx="475" cy="225" r="2.9" fill="hsl(105 96% 68%)" opacity="0.42"/><circle cx="84" cy="57" r="1.4" fill="hsl(157 94% 60%)" opacity="0.38"/><circle cx="412" cy="2" r="3.4" fill="hsl(105 96% 68%)" opacity="0.19"/><circle cx="569" cy="235" r="2.7" fill="hsl(105 96% 68%)" opacity="0.27"/><circle cx="320" cy="150" r="142" fill="url(#glow-s41864489)"/><g transform="translate(320 150) scale(.78)" fill="hsl(21 72% 34%)" stroke="hsl(105 96% 68%)" stroke-width="9" stroke-linejoin="round"><path d="M0-130 31-39 49 19 49 49 19 31-39 31-49-19-49-49-19-31 39-31 49 19 49 49 19Z"/></g><circle cx="212" cy="199" r="2.6" fill="hsl(157 94% 60%)" opacity="0.63"/><circle cx="164" cy="68" r="1.0" fill="hsl(105 96% 68%)" opacity="0.54"/><circle cx="534" cy="175" r="1.9" fill="hsl(105 96% 68%)" opacity="0.36"/><circle cx="406" cy="267" r="1.6" fill="hsl(157 94% 60%)" opacity="0.55"/><circle cx="636" cy="38" r="2.9" fill="hsl(105 96% 68%)" opacity="0.63"/><circle cx="241" cy="165" r="1.3" fill="hsl(105 96% 68%)" opacity="0.54"/><circle cx="551" cy="326" r="2.5" fill="hsl(157 94% 60%)" opacity="0.33"/><circle cx="466" cy="239" r="1.1" fill="hsl(105 96% 68%)" opacity="0.27"/><circle cx="404" cy="191" r="1.3" fill="hsl(105 96% 68%)" opacity="0.45"/><circle cx="430" cy="87" r="2.0" fill="hsl(157 94% 60%)" opacity="0.23"/><circle cx="594" cy="63" r="2.5" fill="hsl(105 96% 68%)" opacity="0.37"/><circle cx="612" cy="206" r="1.2" fill="hsl(105 96% 68%)" opacity="0.62"/><path d="M0 282Q179.20000000000002 239 339.20000000000005 305T640 274V360H0Z" fill="#02040a" opacity=".82"/><text x="28" y="320" fill="#fff5e7" font-family="Segoe UI,Arial,sans-serif" font-size="25" font-weight="700">Continuar cena</text><text x="30" y="343" fill="hsl(105 96% 68%)" font-family="Segoe UI,Arial,sans-serif" font-size="12" letter-spacing="2">AVANÇAR SEM DECIDIR PELO JOGADOR</text><rect x="9" y="9" width="622" height="342" rx="19" fill="none" stroke="hsl(105 96% 68%)" stroke-opacity=".48" stroke-width="2"/></g></svg>